<?xml version="1.0" encoding="UTF-8" standalone="no"?>
<svg viewBox="0 0 24 24">   
  <path
     d="M 5,3 C 3.8954305,3 3,3.8954305 3,5 V 7 H 5 V 5 h 14 v 2 h 2 V 5 C 21,3.8954305 20.104569,3 19,3 H 5 m 3,4 v 2 h 8 V 7 H 8 M 3,9 v 3 c 0,4.970563 4.0294373,9 9,9 4.970563,0 9,-4.029437 9,-9 V 9 h -2 v 3 c 0,3.865993 -3.134007,7 -7,7 C 8.1340068,19 5,15.865993 5,12 V 9 H 3"
     id="total"
     sodipodi:nodetypes="csccccccsscccccccsssccssscc" />
  <path
     d="m 12,12 c -1.380712,0 -2.5,1.119288 -2.5,2.5 0,1.380712 1.119288,2.5 2.5,2.5 1.380712,0 2.5,-1.119288 2.5,-2.5 C 14.5,13.119288 13.380712,12 12,12 Z"
     id="oval" />
</svg>
